<?xml version="1.0" encoding="utf-8"?>
<!-- Generator: Adobe Illustrator 16.0.0, SVG Export Plug-In . SVG Version: 6.00 Build 0)  -->
<!DOCTYPE svg PUBLIC "-//W3C//DTD SVG 1.1//EN" "http://www.w3.org/Graphics/SVG/1.1/DTD/svg11.dtd">
<svg version="1.1" id="Layer_1" xmlns="http://www.w3.org/2000/svg" xmlns:xlink="http://www.w3.org/1999/xlink" x="0px" y="0px"
	 width="28px" height="28px" viewBox="0 0 28 28" enable-background="new 0 0 28 28" xml:space="preserve">
<linearGradient id="SVGID_1_" gradientUnits="userSpaceOnUse" x1="18.8623" y1="22.9277" x2="27.2324" y2="22.9277">
	<stop  offset="0" style="stop-color:#C458F0"/>
	<stop  offset="1" style="stop-color:#007CFF"/>
</linearGradient>
<line fill="none" stroke="url(#SVGID_1_)" stroke-miterlimit="10" x1="19.216" y1="19.098" x2="26.879" y2="26.759"/>
<g>
	<linearGradient id="SVGID_2_" gradientUnits="userSpaceOnUse" x1="0.3789" y1="11.9609" x2="22.8164" y2="11.9609">
		<stop  offset="0" style="stop-color:#C458F0"/>
		<stop  offset="1" style="stop-color:#007CFF"/>
	</linearGradient>
	<path fill="none" stroke="url(#SVGID_2_)" stroke-miterlimit="10" d="M11.598,2.242c5.359,0,9.718,4.36,9.718,9.719
		c0,5.359-4.359,9.719-9.718,9.719c-5.359,0-9.719-4.359-9.719-9.719C1.879,6.601,6.239,2.242,11.598,2.242 M11.598,1.242
		c-5.92,0-10.719,4.799-10.719,10.719S5.678,22.68,11.598,22.68c5.919,0,10.718-4.799,10.718-10.719S17.52,1.242,11.598,1.242
		L11.598,1.242z"/>
</g>
<g>
	<linearGradient id="SVGID_3_" gradientUnits="userSpaceOnUse" x1="-6.1665" y1="33.2471" x2="21.834" y2="33.2471">
		<stop  offset="0" style="stop-color:#C458F0"/>
		<stop  offset="1" style="stop-color:#007CFF"/>
	</linearGradient>
	<line fill="none" stroke="url(#SVGID_3_)" stroke-miterlimit="10" x1="-6.167" y1="33.247" x2="21.834" y2="33.247"/>
	<linearGradient id="SVGID_4_" gradientUnits="userSpaceOnUse" x1="-6.1665" y1="43.2471" x2="21.834" y2="43.2471">
		<stop  offset="0" style="stop-color:#C458F0"/>
		<stop  offset="1" style="stop-color:#007CFF"/>
	</linearGradient>
	<line fill="none" stroke="url(#SVGID_4_)" stroke-miterlimit="10" x1="-6.167" y1="43.247" x2="21.834" y2="43.247"/>
	<linearGradient id="SVGID_5_" gradientUnits="userSpaceOnUse" x1="-6.1665" y1="54.2471" x2="21.834" y2="54.2471">
		<stop  offset="0" style="stop-color:#C458F0"/>
		<stop  offset="1" style="stop-color:#007CFF"/>
	</linearGradient>
	<line fill="none" stroke="url(#SVGID_5_)" stroke-miterlimit="10" x1="-6.167" y1="54.247" x2="21.834" y2="54.247"/>
</g>
</svg>
